<svg width="512" height="512" viewBox="0 0 512 512" fill="none" xmlns="http://www.w3.org/2000/svg">
<g clip-path="url(#clip0)">
<path d="M196 512H316C336.625 512 356.353 507.307 374.636 498.052C379.564 495.558 381.535 489.541 379.041 484.614C376.546 479.686 370.528 477.713 365.603 480.209C350.146 488.033 333.457 492 316 492H266.45C271.516 436.012 318.715 392 376 391.99H425.553C424.699 401.501 422.624 410.8 419.354 419.75C417.458 424.938 420.127 430.679 425.315 432.575C430.503 434.471 436.244 431.802 438.139 426.615C443.355 412.339 446 397.329 446 382C446 376.477 441.522 372 436 372H376C329.735 372 289.045 396.297 266 432.796V318.522C274.145 316.096 283.588 310.209 292.849 297.517C313.619 306.718 327.616 303.4 335.998 298.562C344.381 293.725 354.256 283.26 356.668 260.668C379.259 258.256 389.724 248.381 394.562 239.998C399.4 231.615 402.717 217.616 393.517 196.85C411.875 183.455 416 169.674 416 160C416 150.326 411.875 136.545 393.517 123.151C402.717 102.385 399.4 88.386 394.562 80.002C389.724 71.619 379.259 61.745 356.668 59.333C354.256 36.741 344.381 26.277 335.998 21.439C327.614 16.602 313.615 13.284 292.849 22.484C279.454 4.125 265.675 0 256 0C246.325 0 232.546 4.125 219.151 22.483C198.383 13.283 184.385 16.601 176.002 21.438C167.619 26.275 157.744 36.74 155.332 59.332C132.741 61.744 122.276 71.619 117.438 80.002C112.6 88.385 109.283 102.384 118.483 123.15C100.125 136.545 96 150.326 96 160C96 169.674 100.125 183.455 118.483 196.849C109.283 217.615 112.6 231.614 117.438 239.998C122.276 248.381 132.741 258.255 155.332 260.667C157.744 283.259 167.619 293.723 176.002 298.561C184.387 303.399 198.385 306.717 219.151 297.516C228.411 310.208 237.855 316.095 246 318.521V432.796C222.955 396.297 182.265 372 136 372H76C70.478 372 66 376.477 66 382C66 453.682 124.317 512 196 512ZM231.2 279.479C228.417 274.813 222.442 273.237 217.728 275.872C204.293 283.386 193.025 285.293 185.998 281.238C178.977 277.187 174.995 266.475 174.789 251.076C174.717 245.658 170.342 241.284 164.924 241.211C149.526 241.004 138.814 237.023 134.761 230.003C130.707 222.977 132.614 211.708 140.128 198.273C142.772 193.546 141.173 187.575 136.521 184.802C123.288 176.912 116 168.104 116 160C116 151.896 123.288 143.088 136.521 135.199C141.173 132.426 142.772 126.454 140.128 121.728C132.613 108.293 130.707 97.024 134.761 89.999C138.814 82.977 149.526 78.996 164.924 78.79C170.342 78.717 174.717 74.343 174.789 68.925C174.995 53.526 178.977 42.814 185.998 38.763C193.022 34.707 204.294 36.615 217.728 44.129C222.457 46.774 228.426 45.173 231.2 40.522C239.088 27.288 247.896 20 256 20C264.104 20 272.912 27.288 280.8 40.521C283.572 45.171 289.54 46.773 294.272 44.128C307.707 36.614 318.975 34.707 326.002 38.762C333.023 42.813 337.005 53.525 337.211 68.924C337.283 74.342 341.658 78.716 347.076 78.789C362.474 78.996 373.186 82.977 377.239 89.997C381.293 97.023 379.386 108.292 371.872 121.727C369.228 126.454 370.827 132.425 375.479 135.198C388.712 143.088 396 151.896 396 160C396 168.104 388.712 176.912 375.479 184.801C370.827 187.574 369.228 193.546 371.872 198.272C379.387 211.707 381.293 222.976 377.239 230.001C373.186 237.023 362.474 241.004 347.076 241.21C341.658 241.283 337.283 245.657 337.211 251.075C337.005 266.474 333.023 277.186 326.002 281.237C318.978 285.293 307.706 283.386 294.272 275.871C289.544 273.227 283.574 274.827 280.8 279.478C272.912 292.712 264.104 300 256 300C247.896 300 239.088 292.712 231.2 279.479V279.479ZM136 392C193.285 392 240.483 436.012 245.55 492H196C138.715 492 91.517 447.988 86.45 392H136Z" fill="black"/>
<path d="M406 472C411.523 472 416 467.523 416 462C416 456.477 411.523 452 406 452C400.477 452 396 456.477 396 462C396 467.523 400.477 472 406 472Z" fill="black"/>
</g>
<defs>
<clipPath id="clip0">
<rect width="512" height="512" fill="white"/>
</clipPath>
</defs>
</svg>
